<svg width="24" height="24" viewBox="0 0 24 24" fill="none" xmlns="http://www.w3.org/2000/svg">
<g clip-path="url(#clip0_27_636)">
<path d="M19.7813 2.73206V1.37573H4.34691V2.73206H0V3.59203C0 3.59203 0 5.61872 0 7.64545C0.00126563 8.32636 0.202875 9.02119 0.561844 9.68864H0.562031C1.10241 10.6885 2.00831 11.6408 3.2482 12.3676L3.26691 12.3786L3.24839 12.3676C4.45809 13.0755 5.98973 13.5617 7.79967 13.654L9.42802 15.6306V15.631C9.7687 16.0443 9.94861 16.5457 9.94884 17.0611V18.3155L6.21436 19.5635V22.6242H17.9142V21.8283V19.5635L14.1795 18.3154V17.061C14.1796 16.5457 14.3596 16.0443 14.7003 15.6309L16.3374 13.6442C18.701 13.4959 20.5786 12.673 21.8791 11.572H21.879C22.5544 11.0007 23.0775 10.3564 23.4377 9.68859H23.4379C23.7972 9.02114 23.9988 8.32631 24 7.64583C24 6.63248 24 5.61867 24 4.85897C24 4.47848 24 4.16165 24 3.9404C24 3.71831 24 3.59236 24 3.59194V2.73206H19.7813ZM3.09192 10.4243C2.55047 9.96633 2.14786 9.462 1.88536 8.97487C1.62202 8.48817 1.50258 8.0205 1.50361 7.6455C1.50361 6.63258 1.50361 5.61876 1.50361 4.85906C1.50361 4.62478 1.50361 4.4145 1.50361 4.23628H4.56267V7.01011C4.56248 8.5514 5.10619 10.0468 6.09956 11.2519L6.74231 12.0322C5.17444 11.7697 3.95756 11.1554 3.09192 10.4243ZM13.6393 14.7563C13.1006 15.4094 12.8046 16.2226 12.8046 17.0611V19.3057L16.5393 20.5537V21.2494H7.58902V20.5537L11.3237 19.3057V17.0611C11.3242 16.2226 11.0278 15.4094 10.489 14.7567L6.99408 10.5145C6.16758 9.51122 5.7218 8.27878 5.7218 7.01011V2.7502H18.4067V7.01011C18.4065 8.27883 17.9607 9.51126 17.1343 10.5145L13.6393 14.7563ZM22.4962 7.6455C22.4972 8.02055 22.378 8.48822 22.1145 8.97487C21.7211 9.70547 21.0115 10.4737 19.9919 11.0694C19.2809 11.4857 18.4194 11.8198 17.4071 12.0065L18.0288 11.2518C19.0226 10.0467 19.5661 8.55136 19.5657 7.01006V4.23628H22.4962C22.4962 4.99476 22.4962 6.31992 22.4962 7.6455Z" fill="#797785"/>
</g>
<defs>
<clipPath id="clip0_27_636">
<rect width="24" height="24" fill="white"/>
</clipPath>
</defs>
</svg>
