<svg width="24" height="24" viewBox="0 0 24 24" fill="none" xmlns="http://www.w3.org/2000/svg">
<g clip-path="url(#clip0_26_247)">
<path d="M15.6028 9.58153L14.0903 8.94797C13.8749 9.35152 13.6303 9.78075 13.3674 10.2275L15.1472 10.9724V21.9214L8.85275 19.2854V13.8875L8.71579 13.697C8.64252 13.5952 8.34664 13.1777 7.9409 12.5728V19.2854L1.92041 21.8064V10.8582L5.87624 9.20072C5.78835 9.03956 5.70121 8.877 5.61622 8.71439C5.46679 8.42728 5.33572 8.15775 5.21338 7.89698L0.461426 9.88697V24L8.39647 20.6763L15.6028 23.6939L23.5386 20.3708V6.25781L15.6028 9.58153ZM22.0796 19.4004L16.059 21.9214V10.9724L22.0796 8.45142V19.4004Z" fill="#797785"/>
<path d="M6.28343 8.36719C7.53588 10.7695 9.31638 13.2444 9.32665 13.2583L9.91554 14.0779L10.5037 13.2583C10.511 13.2495 11.5481 11.8052 12.5933 10.062C13.117 9.1875 13.6421 8.23973 14.0464 7.34325C14.2486 6.89428 14.4199 6.45848 14.5459 6.04247C14.6704 5.6257 14.751 5.23092 14.7524 4.83834C14.7517 2.16652 12.5874 0.00075 9.91549 0C7.24216 0.00075 5.07785 2.16652 5.07785 4.83839C5.0786 5.23097 5.16063 5.62575 5.28513 6.04252C5.50488 6.76903 5.86521 7.5637 6.28343 8.36719ZM7.51901 2.44191C8.13499 1.82813 8.97729 1.45022 9.91549 1.44872C10.8537 1.45017 11.696 1.82813 12.3112 2.44191C12.9257 3.05789 13.3029 3.89944 13.3037 4.83839C13.3051 5.01342 13.2582 5.29467 13.1579 5.625C12.9836 6.20728 12.6562 6.94261 12.2614 7.69777C11.6711 8.83158 10.9343 10.0173 10.3476 10.9131C10.1902 11.1533 10.0451 11.3701 9.91549 11.5627C9.50533 10.957 8.93698 10.0884 8.38033 9.14944C7.89255 8.32692 7.41574 7.45167 7.07004 6.66797C6.89646 6.27759 6.75654 5.91066 6.66354 5.59275C6.56904 5.27634 6.52582 5.00756 6.52657 4.83834C6.52732 3.89944 6.90527 3.05784 7.51901 2.44191Z" fill="#797785"/>
<path d="M9.91549 6.41161C10.7841 6.41161 11.4888 5.70703 11.4888 4.83834C11.4888 3.96895 10.7842 3.26508 9.91549 3.26508C9.0468 3.26508 8.34222 3.96895 8.34222 4.83834C8.34227 5.70703 9.04685 6.41161 9.91549 6.41161Z" fill="#797785"/>
</g>
<defs>
<clipPath id="clip0_26_247">
<rect width="24" height="24" fill="white"/>
</clipPath>
</defs>
</svg>
