<svg width="24" height="24" viewBox="0 0 24 24" fill="none" xmlns="http://www.w3.org/2000/svg">
<g clip-path="url(#clip0_26_169)">
<path d="M15.6028 9.58153L14.0903 8.94797C13.875 9.35152 13.6303 9.78075 13.3674 10.2275L15.1472 10.9724V21.9214L8.85277 19.2854V13.8875L8.7158 13.697C8.64254 13.5952 8.34666 13.1777 7.94091 12.5728V19.2854L1.92043 21.8064V10.8582L5.87625 9.20072C5.78836 9.03956 5.70122 8.877 5.61624 8.71439C5.4668 8.42728 5.33574 8.15775 5.21339 7.89698L0.461441 9.88697V24L8.39649 20.6763L15.6028 23.6939L23.5386 20.3708V6.25781L15.6028 9.58153ZM22.0796 19.4004L16.059 21.9214V10.9724L22.0796 8.45142V19.4004Z" fill="#8BAADA"/>
<path d="M6.28346 8.36719C7.53591 10.7695 9.31641 13.2444 9.32668 13.2583L9.91557 14.0779L10.5037 13.2583C10.511 13.2495 11.5481 11.8052 12.5933 10.062C13.117 9.1875 13.6421 8.23973 14.0464 7.34325C14.2486 6.89428 14.42 6.45848 14.5459 6.04247C14.6704 5.6257 14.751 5.23092 14.7525 4.83834C14.7517 2.16652 12.5874 0.00075 9.91552 0C7.24219 0.00075 5.07788 2.16652 5.07788 4.83839C5.07863 5.23097 5.16066 5.62575 5.28516 6.04252C5.50491 6.76903 5.86524 7.5637 6.28346 8.36719ZM7.51904 2.44191C8.13502 1.82813 8.97732 1.45022 9.91552 1.44872C10.8538 1.45017 11.696 1.82813 12.3113 2.44191C12.9257 3.05789 13.3029 3.89944 13.3037 4.83839C13.3051 5.01342 13.2583 5.29467 13.158 5.625C12.9836 6.20728 12.6563 6.94261 12.2615 7.69777C11.6711 8.83158 10.9343 10.0173 10.3477 10.9131C10.1902 11.1533 10.0452 11.3701 9.91552 11.5627C9.50537 10.957 8.93701 10.0884 8.38037 9.14944C7.89258 8.32692 7.41577 7.45167 7.07007 6.66797C6.89649 6.27759 6.75657 5.91066 6.66357 5.59275C6.56907 5.27634 6.52585 5.00756 6.5266 4.83834C6.52735 3.89944 6.9053 3.05784 7.51904 2.44191Z" fill="#8BAADA"/>
<path d="M9.91552 6.41161C10.7842 6.41161 11.4888 5.70703 11.4888 4.83834C11.4888 3.96895 10.7842 3.26508 9.91552 3.26508C9.04683 3.26508 8.34225 3.96895 8.34225 4.83834C8.3423 5.70703 9.04688 6.41161 9.91552 6.41161Z" fill="#8BAADA"/>
</g>
<defs>
<clipPath id="clip0_26_169">
<rect width="24" height="24" fill="white"/>
</clipPath>
</defs>
</svg>
